<svg xmlns="http://www.w3.org/2000/svg" xmlns:xlink="http://www.w3.org/1999/xlink" width="500" zoomAndPan="magnify" viewBox="0 0 375 374.999991" height="500" preserveAspectRatio="xMidYMid meet" version="1.0"><defs><g/></defs><g fill="#ffffff" fill-opacity="1"><g transform="translate(63.910126, 199.874987)"><g><path d="M 21.828125 -11.890625 C 21.828125 -8.035156 20.78125 -5.085938 18.6875 -3.046875 C 16.59375 -1.015625 13.585938 0 9.671875 0 L 3.203125 0 L 3.203125 -23.328125 L 10.359375 -23.328125 C 13.984375 -23.328125 16.800781 -22.320312 18.8125 -20.3125 C 20.820312 -18.300781 21.828125 -15.492188 21.828125 -11.890625 Z M 18.953125 -11.796875 C 18.953125 -14.835938 18.1875 -17.128906 16.65625 -18.671875 C 15.132812 -20.210938 12.867188 -20.984375 9.859375 -20.984375 L 5.921875 -20.984375 L 5.921875 -2.34375 L 9.21875 -2.34375 C 12.457031 -2.34375 14.890625 -3.132812 16.515625 -4.71875 C 18.140625 -6.3125 18.953125 -8.671875 18.953125 -11.796875 Z M 18.953125 -11.796875 "/></g></g></g><g fill="#ffffff" fill-opacity="1"><g transform="translate(85.203826, 199.874987)"><g><path d="M 17.90625 -8.765625 C 17.90625 -5.910156 17.1875 -3.679688 15.75 -2.078125 C 14.3125 -0.484375 12.328125 0.3125 9.796875 0.3125 C 8.234375 0.3125 6.84375 -0.0507812 5.625 -0.78125 C 4.414062 -1.507812 3.476562 -2.5625 2.8125 -3.9375 C 2.15625 -5.3125 1.828125 -6.921875 1.828125 -8.765625 C 1.828125 -11.609375 2.539062 -13.820312 3.96875 -15.40625 C 5.394531 -17 7.375 -17.796875 9.90625 -17.796875 C 12.351562 -17.796875 14.296875 -16.984375 15.734375 -15.359375 C 17.179688 -13.734375 17.90625 -11.535156 17.90625 -8.765625 Z M 4.578125 -8.765625 C 4.578125 -6.523438 5.023438 -4.816406 5.921875 -3.640625 C 6.816406 -2.472656 8.128906 -1.890625 9.859375 -1.890625 C 11.585938 -1.890625 12.898438 -2.472656 13.796875 -3.640625 C 14.703125 -4.804688 15.15625 -6.515625 15.15625 -8.765625 C 15.15625 -10.984375 14.703125 -12.664062 13.796875 -13.8125 C 12.898438 -14.96875 11.578125 -15.546875 9.828125 -15.546875 C 8.097656 -15.546875 6.789062 -14.976562 5.90625 -13.84375 C 5.019531 -12.707031 4.578125 -11.015625 4.578125 -8.765625 Z M 4.578125 -8.765625 "/></g></g></g><g fill="#ffffff" fill-opacity="1"><g transform="translate(102.415006, 199.874987)"><g><path d="M 5.296875 -17.484375 L 5.296875 -6.140625 C 5.296875 -4.710938 5.617188 -3.644531 6.265625 -2.9375 C 6.921875 -2.238281 7.9375 -1.890625 9.3125 -1.890625 C 11.144531 -1.890625 12.484375 -2.390625 13.328125 -3.390625 C 14.171875 -4.390625 14.59375 -6.023438 14.59375 -8.296875 L 14.59375 -17.484375 L 17.25 -17.484375 L 17.25 0 L 15.0625 0 L 14.671875 -2.34375 L 14.53125 -2.34375 C 13.988281 -1.476562 13.234375 -0.816406 12.265625 -0.359375 C 11.304688 0.0859375 10.210938 0.3125 8.984375 0.3125 C 6.859375 0.3125 5.265625 -0.191406 4.203125 -1.203125 C 3.140625 -2.210938 2.609375 -3.828125 2.609375 -6.046875 L 2.609375 -17.484375 Z M 5.296875 -17.484375 "/></g></g></g><g fill="#ffffff" fill-opacity="1"><g transform="translate(119.945134, 199.874987)"><g><path d="M 8.453125 -1.859375 C 8.921875 -1.859375 9.375 -1.894531 9.8125 -1.96875 C 10.25 -2.039062 10.59375 -2.113281 10.84375 -2.1875 L 10.84375 -0.15625 C 10.5625 -0.0195312 10.140625 0.0859375 9.578125 0.171875 C 9.023438 0.265625 8.523438 0.3125 8.078125 0.3125 C 4.691406 0.3125 3 -1.46875 3 -5.03125 L 3 -15.421875 L 0.5 -15.421875 L 0.5 -16.703125 L 3 -17.796875 L 4.109375 -21.53125 L 5.640625 -21.53125 L 5.640625 -17.484375 L 10.71875 -17.484375 L 10.71875 -15.421875 L 5.640625 -15.421875 L 5.640625 -5.140625 C 5.640625 -4.085938 5.890625 -3.273438 6.390625 -2.703125 C 6.890625 -2.140625 7.578125 -1.859375 8.453125 -1.859375 Z M 8.453125 -1.859375 "/></g></g></g><g fill="#ffffff" fill-opacity="1"><g transform="translate(128.959381, 199.874987)"><g><path d="M 17.90625 -8.765625 C 17.90625 -5.910156 17.1875 -3.679688 15.75 -2.078125 C 14.3125 -0.484375 12.328125 0.3125 9.796875 0.3125 C 8.234375 0.3125 6.84375 -0.0507812 5.625 -0.78125 C 4.414062 -1.507812 3.476562 -2.5625 2.8125 -3.9375 C 2.15625 -5.3125 1.828125 -6.921875 1.828125 -8.765625 C 1.828125 -11.609375 2.539062 -13.820312 3.96875 -15.40625 C 5.394531 -17 7.375 -17.796875 9.90625 -17.796875 C 12.351562 -17.796875 14.296875 -16.984375 15.734375 -15.359375 C 17.179688 -13.734375 17.90625 -11.535156 17.90625 -8.765625 Z M 4.578125 -8.765625 C 4.578125 -6.523438 5.023438 -4.816406 5.921875 -3.640625 C 6.816406 -2.472656 8.128906 -1.890625 9.859375 -1.890625 C 11.585938 -1.890625 12.898438 -2.472656 13.796875 -3.640625 C 14.703125 -4.804688 15.15625 -6.515625 15.15625 -8.765625 C 15.15625 -10.984375 14.703125 -12.664062 13.796875 -13.8125 C 12.898438 -14.96875 11.578125 -15.546875 9.828125 -15.546875 C 8.097656 -15.546875 6.789062 -14.976562 5.90625 -13.84375 C 5.019531 -12.707031 4.578125 -11.015625 4.578125 -8.765625 Z M 4.578125 -8.765625 "/></g></g></g><g fill="#ffffff" fill-opacity="1"><g transform="translate(146.170562, 199.874987)"><g><path d="M 10.78125 -17.796875 C 11.5625 -17.796875 12.257812 -17.734375 12.875 -17.609375 L 12.5 -15.15625 C 11.78125 -15.3125 11.144531 -15.390625 10.59375 -15.390625 C 9.175781 -15.390625 7.960938 -14.816406 6.953125 -13.671875 C 5.953125 -12.523438 5.453125 -11.09375 5.453125 -9.375 L 5.453125 0 L 2.8125 0 L 2.8125 -17.484375 L 5 -17.484375 L 5.296875 -14.25 L 5.421875 -14.25 C 6.066406 -15.382812 6.847656 -16.257812 7.765625 -16.875 C 8.679688 -17.488281 9.6875 -17.796875 10.78125 -17.796875 Z M 10.78125 -17.796875 "/></g></g></g><g fill="#851600" fill-opacity="1"><g transform="translate(156.992151, 199.874987)"><g><path d="M 22.046875 0 L 17.125 0 L 17.125 -10.0625 L 7.875 -10.0625 L 7.875 0 L 2.9375 0 L 2.9375 -23.328125 L 7.875 -23.328125 L 7.875 -14.1875 L 17.125 -14.1875 L 17.125 -23.328125 L 22.046875 -23.328125 Z M 22.046875 0 "/></g></g></g><g fill="#851600" fill-opacity="1"><g transform="translate(179.465954, 199.874987)"><g><path d="M 13.875 0 L 12.9375 -2.421875 L 12.8125 -2.421875 C 11.988281 -1.390625 11.144531 -0.675781 10.28125 -0.28125 C 9.414062 0.113281 8.285156 0.3125 6.890625 0.3125 C 5.179688 0.3125 3.832031 -0.171875 2.84375 -1.140625 C 1.863281 -2.117188 1.375 -3.515625 1.375 -5.328125 C 1.375 -7.222656 2.035156 -8.617188 3.359375 -9.515625 C 4.679688 -10.410156 6.675781 -10.90625 9.34375 -11 L 12.4375 -11.109375 L 12.4375 -11.890625 C 12.4375 -13.691406 11.515625 -14.59375 9.671875 -14.59375 C 8.242188 -14.59375 6.566406 -14.164062 4.640625 -13.3125 L 3.03125 -16.59375 C 5.082031 -17.664062 7.359375 -18.203125 9.859375 -18.203125 C 12.253906 -18.203125 14.085938 -17.679688 15.359375 -16.640625 C 16.640625 -15.597656 17.28125 -14.015625 17.28125 -11.890625 L 17.28125 0 Z M 12.4375 -8.265625 L 10.5625 -8.203125 C 9.144531 -8.160156 8.085938 -7.90625 7.390625 -7.4375 C 6.703125 -6.96875 6.359375 -6.253906 6.359375 -5.296875 C 6.359375 -3.921875 7.144531 -3.234375 8.71875 -3.234375 C 9.851562 -3.234375 10.753906 -3.554688 11.421875 -4.203125 C 12.097656 -4.859375 12.4375 -5.722656 12.4375 -6.796875 Z M 12.4375 -8.265625 "/></g></g></g><g fill="#851600" fill-opacity="1"><g transform="translate(196.677135, 199.874987)"><g><path d="M 17.21875 0 L 15.84375 -6.234375 L 13.984375 -14.125 L 13.875 -14.125 L 10.625 0 L 5.390625 0 L 0.3125 -17.828125 L 5.171875 -17.828125 L 7.234375 -9.9375 C 7.554688 -8.519531 7.890625 -6.566406 8.234375 -4.078125 L 8.328125 -4.078125 C 8.367188 -4.890625 8.554688 -6.171875 8.890625 -7.921875 L 9.140625 -9.28125 L 11.34375 -17.828125 L 16.703125 -17.828125 L 18.796875 -9.28125 C 18.835938 -9.050781 18.898438 -8.707031 18.984375 -8.25 C 19.078125 -7.789062 19.164062 -7.300781 19.25 -6.78125 C 19.34375 -6.269531 19.421875 -5.765625 19.484375 -5.265625 C 19.554688 -4.773438 19.597656 -4.378906 19.609375 -4.078125 L 19.703125 -4.078125 C 19.796875 -4.847656 19.960938 -5.898438 20.203125 -7.234375 C 20.453125 -8.566406 20.628906 -9.46875 20.734375 -9.9375 L 22.875 -17.828125 L 27.640625 -17.828125 L 22.515625 0 Z M 17.21875 0 "/></g></g></g><g fill="#851600" fill-opacity="1"><g transform="translate(222.117143, 199.874987)"><g><path d="M 9.9375 -14.703125 C 8.90625 -14.703125 8.097656 -14.375 7.515625 -13.71875 C 6.929688 -13.070312 6.597656 -12.144531 6.515625 -10.9375 L 13.34375 -10.9375 C 13.320312 -12.144531 13.003906 -13.070312 12.390625 -13.71875 C 11.785156 -14.375 10.96875 -14.703125 9.9375 -14.703125 Z M 10.625 0.3125 C 7.75 0.3125 5.503906 -0.476562 3.890625 -2.0625 C 2.273438 -3.644531 1.46875 -5.890625 1.46875 -8.796875 C 1.46875 -11.773438 2.210938 -14.082031 3.703125 -15.71875 C 5.203125 -17.351562 7.269531 -18.171875 9.90625 -18.171875 C 12.425781 -18.171875 14.390625 -17.453125 15.796875 -16.015625 C 17.203125 -14.578125 17.90625 -12.59375 17.90625 -10.0625 L 17.90625 -7.703125 L 6.390625 -7.703125 C 6.453125 -6.316406 6.863281 -5.234375 7.625 -4.453125 C 8.394531 -3.679688 9.46875 -3.296875 10.84375 -3.296875 C 11.914062 -3.296875 12.929688 -3.40625 13.890625 -3.625 C 14.847656 -3.851562 15.847656 -4.210938 16.890625 -4.703125 L 16.890625 -0.9375 C 16.046875 -0.507812 15.140625 -0.195312 14.171875 0 C 13.203125 0.207031 12.019531 0.3125 10.625 0.3125 Z M 10.625 0.3125 "/></g></g></g><g fill="#851600" fill-opacity="1"><g transform="translate(238.897739, 199.874987)"><g><path d="M 15 -5.296875 C 15 -3.460938 14.363281 -2.066406 13.09375 -1.109375 C 11.820312 -0.160156 9.921875 0.3125 7.390625 0.3125 C 6.085938 0.3125 4.976562 0.222656 4.0625 0.046875 C 3.15625 -0.117188 2.300781 -0.375 1.5 -0.71875 L 1.5 -4.734375 C 2.40625 -4.304688 3.421875 -3.945312 4.546875 -3.65625 C 5.679688 -3.375 6.679688 -3.234375 7.546875 -3.234375 C 9.304688 -3.234375 10.1875 -3.742188 10.1875 -4.765625 C 10.1875 -5.148438 10.066406 -5.460938 9.828125 -5.703125 C 9.597656 -5.941406 9.195312 -6.210938 8.625 -6.515625 C 8.050781 -6.816406 7.285156 -7.171875 6.328125 -7.578125 C 4.960938 -8.148438 3.957031 -8.679688 3.3125 -9.171875 C 2.664062 -9.660156 2.195312 -10.222656 1.90625 -10.859375 C 1.613281 -11.492188 1.46875 -12.269531 1.46875 -13.1875 C 1.46875 -14.769531 2.082031 -15.992188 3.3125 -16.859375 C 4.539062 -17.734375 6.28125 -18.171875 8.53125 -18.171875 C 10.675781 -18.171875 12.765625 -17.703125 14.796875 -16.765625 L 13.34375 -13.25 C 12.445312 -13.632812 11.609375 -13.945312 10.828125 -14.1875 C 10.054688 -14.4375 9.265625 -14.5625 8.453125 -14.5625 C 7.015625 -14.5625 6.296875 -14.175781 6.296875 -13.40625 C 6.296875 -12.96875 6.523438 -12.585938 6.984375 -12.265625 C 7.453125 -11.953125 8.46875 -11.476562 10.03125 -10.84375 C 11.425781 -10.28125 12.445312 -9.753906 13.09375 -9.265625 C 13.75 -8.773438 14.226562 -8.210938 14.53125 -7.578125 C 14.84375 -6.941406 15 -6.179688 15 -5.296875 Z M 15 -5.296875 "/></g></g></g><g fill="#851600" fill-opacity="1"><g transform="translate(252.616447, 199.874987)"><g><path d="M 13.875 0 L 12.9375 -2.421875 L 12.8125 -2.421875 C 11.988281 -1.390625 11.144531 -0.675781 10.28125 -0.28125 C 9.414062 0.113281 8.285156 0.3125 6.890625 0.3125 C 5.179688 0.3125 3.832031 -0.171875 2.84375 -1.140625 C 1.863281 -2.117188 1.375 -3.515625 1.375 -5.328125 C 1.375 -7.222656 2.035156 -8.617188 3.359375 -9.515625 C 4.679688 -10.410156 6.675781 -10.90625 9.34375 -11 L 12.4375 -11.109375 L 12.4375 -11.890625 C 12.4375 -13.691406 11.515625 -14.59375 9.671875 -14.59375 C 8.242188 -14.59375 6.566406 -14.164062 4.640625 -13.3125 L 3.03125 -16.59375 C 5.082031 -17.664062 7.359375 -18.203125 9.859375 -18.203125 C 12.253906 -18.203125 14.085938 -17.679688 15.359375 -16.640625 C 16.640625 -15.597656 17.28125 -14.015625 17.28125 -11.890625 L 17.28125 0 Z M 12.4375 -8.265625 L 10.5625 -8.203125 C 9.144531 -8.160156 8.085938 -7.90625 7.390625 -7.4375 C 6.703125 -6.96875 6.359375 -6.253906 6.359375 -5.296875 C 6.359375 -3.921875 7.144531 -3.234375 8.71875 -3.234375 C 9.851562 -3.234375 10.753906 -3.554688 11.421875 -4.203125 C 12.097656 -4.859375 12.4375 -5.722656 12.4375 -6.796875 Z M 12.4375 -8.265625 "/></g></g></g><g fill="#851600" fill-opacity="1"><g transform="translate(269.827627, 199.874987)"><g><path d="M 18.078125 -17.828125 L 18.078125 -15.359375 L 15.28125 -14.640625 C 15.789062 -13.847656 16.046875 -12.957031 16.046875 -11.96875 C 16.046875 -10.050781 15.378906 -8.554688 14.046875 -7.484375 C 12.710938 -6.421875 10.859375 -5.890625 8.484375 -5.890625 L 7.609375 -5.9375 L 6.890625 -6.015625 C 6.390625 -5.628906 6.140625 -5.203125 6.140625 -4.734375 C 6.140625 -4.035156 7.035156 -3.6875 8.828125 -3.6875 L 11.859375 -3.6875 C 13.804688 -3.6875 15.296875 -3.265625 16.328125 -2.421875 C 17.359375 -1.585938 17.875 -0.351562 17.875 1.28125 C 17.875 3.363281 17.003906 4.976562 15.265625 6.125 C 13.523438 7.269531 11.023438 7.84375 7.765625 7.84375 C 5.273438 7.84375 3.375 7.410156 2.0625 6.546875 C 0.75 5.679688 0.09375 4.46875 0.09375 2.90625 C 0.09375 1.832031 0.425781 0.929688 1.09375 0.203125 C 1.769531 -0.515625 2.753906 -1.03125 4.046875 -1.34375 C 3.546875 -1.550781 3.109375 -1.894531 2.734375 -2.375 C 2.367188 -2.863281 2.1875 -3.378906 2.1875 -3.921875 C 2.1875 -4.609375 2.378906 -5.175781 2.765625 -5.625 C 3.160156 -6.070312 3.734375 -6.515625 4.484375 -6.953125 C 3.546875 -7.359375 2.800781 -8.003906 2.25 -8.890625 C 1.707031 -9.785156 1.4375 -10.84375 1.4375 -12.0625 C 1.4375 -14.007812 2.066406 -15.515625 3.328125 -16.578125 C 4.597656 -17.640625 6.410156 -18.171875 8.765625 -18.171875 C 9.265625 -18.171875 9.851562 -18.125 10.53125 -18.03125 C 11.21875 -17.945312 11.660156 -17.878906 11.859375 -17.828125 Z M 4.3125 2.515625 C 4.3125 3.191406 4.628906 3.71875 5.265625 4.09375 C 5.910156 4.476562 6.8125 4.671875 7.96875 4.671875 C 9.71875 4.671875 11.085938 4.429688 12.078125 3.953125 C 13.066406 3.472656 13.5625 2.820312 13.5625 2 C 13.5625 1.320312 13.269531 0.851562 12.6875 0.59375 C 12.101562 0.34375 11.195312 0.21875 9.96875 0.21875 L 7.453125 0.21875 C 6.554688 0.21875 5.804688 0.425781 5.203125 0.84375 C 4.609375 1.269531 4.3125 1.828125 4.3125 2.515625 Z M 6.078125 -12 C 6.078125 -11.03125 6.296875 -10.265625 6.734375 -9.703125 C 7.179688 -9.140625 7.859375 -8.859375 8.765625 -8.859375 C 9.671875 -8.859375 10.335938 -9.140625 10.765625 -9.703125 C 11.191406 -10.265625 11.40625 -11.03125 11.40625 -12 C 11.40625 -14.144531 10.523438 -15.21875 8.765625 -15.21875 C 6.972656 -15.21875 6.078125 -14.144531 6.078125 -12 Z M 6.078125 -12 "/></g></g></g><g fill="#851600" fill-opacity="1"><g transform="translate(285.76302, 199.874987)"><g><path d="M 13.875 0 L 12.9375 -2.421875 L 12.8125 -2.421875 C 11.988281 -1.390625 11.144531 -0.675781 10.28125 -0.28125 C 9.414062 0.113281 8.285156 0.3125 6.890625 0.3125 C 5.179688 0.3125 3.832031 -0.171875 2.84375 -1.140625 C 1.863281 -2.117188 1.375 -3.515625 1.375 -5.328125 C 1.375 -7.222656 2.035156 -8.617188 3.359375 -9.515625 C 4.679688 -10.410156 6.675781 -10.90625 9.34375 -11 L 12.4375 -11.109375 L 12.4375 -11.890625 C 12.4375 -13.691406 11.515625 -14.59375 9.671875 -14.59375 C 8.242188 -14.59375 6.566406 -14.164062 4.640625 -13.3125 L 3.03125 -16.59375 C 5.082031 -17.664062 7.359375 -18.203125 9.859375 -18.203125 C 12.253906 -18.203125 14.085938 -17.679688 15.359375 -16.640625 C 16.640625 -15.597656 17.28125 -14.015625 17.28125 -11.890625 L 17.28125 0 Z M 12.4375 -8.265625 L 10.5625 -8.203125 C 9.144531 -8.160156 8.085938 -7.90625 7.390625 -7.4375 C 6.703125 -6.96875 6.359375 -6.253906 6.359375 -5.296875 C 6.359375 -3.921875 7.144531 -3.234375 8.71875 -3.234375 C 9.851562 -3.234375 10.753906 -3.554688 11.421875 -4.203125 C 12.097656 -4.859375 12.4375 -5.722656 12.4375 -6.796875 Z M 12.4375 -8.265625 "/></g></g></g></svg>