<svg viewBox="0 0 640 640" xmlns="http://www.w3.org/2000/svg">
  <circle cx="320" cy="320" r="300" fill="hsl(370, 100%, 26%)"/>
  <g fill="#FFFFFF" transform="translate(81.89 78.87) scale(0.744)">
    <path d="M320 72c-66.3 0-120 53.7-120 120 0 66.3 53.7 120 120 120 66.3 0 120-53.7 120-120 0-66.3-53.7-120-120-120zm60 312.8c-5.4-.5-11-.8-16.6-.8h-86.9c-5.6 0-11.1.3-16.6.8v67.5c16.5 7.6 28 24.3 28 43.6 0 26.5-21.5 48-48 48-26.5 0-48-21.5-48-48 0-19.4 11.5-36.1 28-43.6V393.9C157 417 112 477.6 112 548.6c0 15.1 12.3 27.4 27.4 27.4h361.1c15.1 0 27.4-12.3 27.4-27.4 0-71-45-131.5-108-154.6v37.4c23.3 8.2 40 30.5 40 56.6v32c0 11-9 20-20 20-11 0-20-9-20-20v-32c0-11-9-20-20-20-11 0-20 9-20 20v32c0 11-9 20-20 20-11 0-20-9-20-20v-32c0-26.1 16.7-48.3 40-56.6v-46.6z"/>
  </g>
</svg>
